<?xml version="1.0" encoding="utf-8"?>
<!-- Generator: Adobe Illustrator 24.2.1, SVG Export Plug-In . SVG Version: 6.00 Build 0)  -->
<svg version="1.1" xmlns="http://www.w3.org/2000/svg" xmlns:xlink="http://www.w3.org/1999/xlink" x="0px" y="0px"
	 viewBox="0 0 595.3 841.9" style="enable-background:new 0 0 595.3 841.9;" xml:space="preserve">
<style type="text/css">
	.st0{display:none;}
	.st1{opacity:0.4;fill:#ED2024;}
	.st2{opacity:0.8;fill:url(#SVGID_1_);}
	.st3{opacity:0.8;fill:url(#SVGID_2_);}
	.st4{opacity:0.8;fill:url(#SVGID_3_);}
</style>
<g id="Layer_2" class="st0">
	<rect class="st1" width="592.5" height="838.6"/>
</g>
<g id="Layer_1">
	<linearGradient id="SVGID_1_" gradientUnits="userSpaceOnUse" x1="297.6378" y1="413.6129" x2="297.6378" y2="841.8898">
		<stop  offset="0" style="stop-color:#BE4F38;stop-opacity:0.1"/>
		<stop  offset="0.4078" style="stop-color:#BE4F38;stop-opacity:0.3"/>
	</linearGradient>
	<path class="st2" d="M595.3,489.5c0,0-50.5-71.3-129.5-75.8c-79-4.4-141.5,80.2-244.9,64.7S95.2,422.1,0,438.7v403.2h595.3V489.5z"
		/>
	<linearGradient id="SVGID_2_" gradientUnits="userSpaceOnUse" x1="297.6378" y1="554.7904" x2="297.6378" y2="841.8898">
		<stop  offset="0" style="stop-color:#BE4F38;stop-opacity:0.2"/>
		<stop  offset="0.2514" style="stop-color:#BE4F38;stop-opacity:0.3"/>
	</linearGradient>
	<path class="st3" d="M0,634c0,0,130.4-98.2,256.9-75.9c126.6,22.4,109.6,86.6,338.3,97.3v186.5H0V634z"/>
	
		<linearGradient id="SVGID_3_" gradientUnits="userSpaceOnUse" x1="297.6378" y1="300.8208" x2="297.6378" y2="841.8898" gradientTransform="matrix(-1 0 0 1 595.2756 0)">
		<stop  offset="0" style="stop-color:#BE4F38;stop-opacity:0.4"/>
		<stop  offset="0.3743" style="stop-color:#BE4F38;stop-opacity:0.5"/>
	</linearGradient>
	<path class="st4" d="M0,385.6c0,0,139.6-99.2,245.3-83s168.8,94.7,350,93.6v445.7H0L0,385.6z"/>
</g>
</svg>
